<?xml version="1.0" encoding="UTF-8"?>
<svg width="20px" height="18px" viewBox="0 0 20 18" version="1.1" xmlns="http://www.w3.org/2000/svg" xmlns:xlink="http://www.w3.org/1999/xlink">
    <!-- Generator: Sketch 51.3 (57544) - http://www.bohemiancoding.com/sketch -->
    <title>list</title>
    <desc>Created with Sketch.</desc>
    <defs></defs>
    <g id="Page-1" stroke="none" stroke-width="1" fill="none" fill-rule="evenodd">
        <g id="list">
            <path d="M6,3 L19,3" id="Shape" stroke="#B0B0B0" stroke-width="2" stroke-linecap="round" stroke-linejoin="round"></path>
            <path d="M6,9 L19,9" id="Shape" stroke="#B0B0B0" stroke-width="2" stroke-linecap="round" stroke-linejoin="round"></path>
            <path d="M6,15 L19,15" id="Shape" stroke="#B0B0B0" stroke-width="2" stroke-linecap="round" stroke-linejoin="round"></path>
            <path d="M0.416015625,2.0703125 L0.416015625,1.50195312 C0.679688818,1.49023432 0.864257285,1.47265637 0.969726562,1.44921875 C1.13769615,1.41210919 1.27441354,1.33789118 1.37988281,1.2265625 C1.4521488,1.15039024 1.50683575,1.04882876 1.54394531,0.921875 C1.56542979,0.845702744 1.57617188,0.789062686 1.57617188,0.751953125 L2.27050781,0.751953125 L2.27050781,5 L1.41503906,5 L1.41503906,2.0703125 L0.416015625,2.0703125 Z" id="1" fill="#B0B0B0"></path>
            <path d="M0.1875,11 C0.195312539,10.695311 0.260741572,10.4169934 0.383789062,10.1650391 C0.502930283,9.88183452 0.784177471,9.58203283 1.22753906,9.265625 C1.61230661,8.990233 1.86132756,8.79296935 1.97460938,8.67382812 C2.14843837,8.48828032 2.23535156,8.28515735 2.23535156,8.06445312 C2.23535156,7.88476473 2.18554737,7.73535216 2.0859375,7.61621094 C1.98632763,7.49706972 1.84375093,7.4375 1.65820313,7.4375 C1.40429561,7.4375 1.23144577,7.53222562 1.13964844,7.72167969 C1.0869138,7.83105523 1.05566411,8.00488162 1.04589844,8.24316406 L0.234375,8.24316406 C0.248046943,7.88183413 0.313475977,7.58984486 0.430664062,7.3671875 C0.653321426,6.94335726 1.04882528,6.73144531 1.6171875,6.73144531 C2.0664085,6.73144531 2.4238268,6.85595579 2.68945312,7.10498047 C2.95507945,7.35400515 3.08789062,7.6835917 3.08789062,8.09375 C3.08789062,8.4082047 2.99414156,8.68749878 2.80664062,8.93164062 C2.68359313,9.09375081 2.48144672,9.27441307 2.20019531,9.47363281 L1.86621094,9.7109375 C1.65722552,9.85937574 1.51416054,9.96679654 1.43701172,10.0332031 C1.3598629,10.0996097 1.29492214,10.1767574 1.2421875,10.2646484 L3.09667969,10.2646484 L3.09667969,11 L0.1875,11 Z" id="2" fill="#B0B0B0"></path>
            <path d="M2.45609641,14.7443139 C2.53191979,14.7480865 2.63900124,14.8134578 2.77734375,14.9404297 C2.99023544,15.1376963 3.09667969,15.4072249 3.09667969,15.7490234 C3.09667969,16.1084002 2.97216921,16.424315 2.72314453,16.6967773 C2.47411985,16.9692396 2.10547119,17.1054688 1.6171875,17.1054688 C1.01562199,17.1054688 0.597657422,16.9091817 0.36328125,16.5166016 C0.24023376,16.3076161 0.171875068,16.0341814 0.158203125,15.6962891 L0.978515625,15.6962891 C0.978515625,15.8662118 1.0058591,16.0068354 1.06054688,16.1181641 C1.16210988,16.3232432 1.34667835,16.4257812 1.61425781,16.4257812 C1.77832113,16.4257812 1.92138611,16.3696295 2.04345703,16.2573242 C2.16552795,16.145019 2.2265625,15.9833995 2.2265625,15.7724609 C2.2265625,15.4931627 2.11328238,15.3066411 1.88671875,15.2128906 C1.75781186,15.160156 1.55468889,15.1337891 1.27734375,15.1337891 L1.27734375,14.5361328 C1.54882948,14.5322265 1.73828071,14.5058596 1.84570312,14.4570312 C2.03125093,14.3749996 2.12402344,14.2089856 2.12402344,13.9589844 C2.12402344,13.7968742 2.07666063,13.6650396 1.98193359,13.5634766 C1.88720656,13.4619136 1.75390711,13.4111328 1.58203125,13.4111328 C1.38476464,13.4111328 1.23974656,13.4736322 1.14697266,13.5986328 C1.05419875,13.7236334 1.00976561,13.890624 1.01367188,14.0996094 L0.234375,14.0996094 C0.242187539,13.8886708 0.27831999,13.6884775 0.342773438,13.4990234 C0.411133154,13.333007 0.518553955,13.1796882 0.665039062,13.0390625 C0.774414609,12.9394526 0.904296123,12.8632815 1.0546875,12.8105469 C1.20507888,12.7578122 1.38964734,12.7314453 1.60839844,12.7314453 C2.01465047,12.7314453 2.34228391,12.8364247 2.59130859,13.0463867 C2.84033328,13.2563487 2.96484375,13.5380842 2.96484375,13.8916016 C2.96484375,14.1416028 2.89062574,14.3525382 2.7421875,14.5244141 C2.6485168,14.6317451 2.55094793,14.7049533 2.44947798,14.7440408 L2.45609641,14.7443139 Z" id="3" fill="#B0B0B0"></path>
        </g>
    </g>
</svg>