<?xml version="1.0" encoding="UTF-8"?>
<svg width="47px" height="44px" viewBox="0 0 47 44" version="1.1" xmlns="http://www.w3.org/2000/svg" xmlns:xlink="http://www.w3.org/1999/xlink">
    <!-- Generator: Sketch 51.3 (57544) - http://www.bohemiancoding.com/sketch -->
    <title>creative-thinking</title>
    <desc>Created with Sketch.</desc>
    <defs>
        <filter x="-17.9%" y="-13.9%" width="135.9%" height="138.9%" filterUnits="objectBoundingBox" id="filter-1">
            <feOffset dx="0" dy="2" in="SourceAlpha" result="shadowOffsetOuter1"></feOffset>
            <feGaussianBlur stdDeviation="2" in="shadowOffsetOuter1" result="shadowBlurOuter1"></feGaussianBlur>
            <feColorMatrix values="0 0 0 0 0.282352941   0 0 0 0 0.435294118   0 0 0 0 1  0 0 0 0.5 0" type="matrix" in="shadowBlurOuter1" result="shadowMatrixOuter1"></feColorMatrix>
            <feMerge>
                <feMergeNode in="shadowMatrixOuter1"></feMergeNode>
                <feMergeNode in="SourceGraphic"></feMergeNode>
            </feMerge>
        </filter>
    </defs>
    <g id="Page-1" stroke="none" stroke-width="1" fill="none" fill-rule="evenodd">
        <g id="creative-thinking" filter="url(#filter-1)" transform="translate(4.000000, 2.000000)" fill="#486FFF" fill-rule="nonzero">
            <path d="M29.41,4.34 C29.99,4.35 30.58,4.46 31.15,4.65 C32.35,5.06 33.5,5.85 34.39,6.9 C35.28,7.96 35.92,9.29 36.08,10.77 C36.15,11.42 36.13,12.09 36,12.78 C36.62,13.35 37.14,13.98 37.53,14.66 C38.17,15.75 38.5,16.96 38.46,18.19 C38.42,19.43 38.02,20.67 37.17,21.81 C36.66,22.5 35.99,23.15 35.15,23.74 C35.21,25.58 34.66,27.24 33.77,28.52 C32.78,29.95 31.36,30.94 29.87,31.25 C29.51,32.54 28.64,33.68 27.54,34.47 C26.1,35.5 24.22,35.98 22.5,35.51 C21.32,35.19 20.24,34.44 19.46,33.16 C18.52,34.58 17.28,35.34 15.98,35.61 C14.32,35.96 12.6,35.45 11.3,34.44 C10.3,33.66 9.54,32.57 9.24,31.33 C8.76,31.29 8.27,31.19 7.8,31.03 C6.63,30.63 5.5,29.87 4.63,28.85 C3.75,27.83 3.1,26.55 2.9,25.12 C2.8,24.41 2.81,23.66 2.96,22.9 C2.42,22.4 1.96,21.84 1.58,21.23 C0.91,20.14 0.53,18.91 0.55,17.64 C0.57,16.36 0.97,15.07 1.85,13.87 C2.34,13.2 2.99,12.56 3.8,11.97 C3.79,11.77 3.79,11.57 3.8,11.38 C3.87,9.52 4.55,7.89 5.54,6.68 C5.57,6.65 5.59,6.62 5.62,6.59 C6.61,5.42 7.9,4.64 9.24,4.41 C9.29,4.23 9.34,4.06 9.4,3.88 C9.87,2.62 10.82,1.54 11.99,0.86 C13.17,0.17 14.59,-0.13 15.97,0.16 C17.21,0.42 18.4,1.13 19.32,2.43 C20.24,1.13 21.43,0.42 22.67,0.16 C23.93,-0.1 25.22,0.12 26.33,0.68 C27.42,1.23 28.36,2.12 28.93,3.18 C29.15,3.56 29.31,3.94 29.41,4.34 Z M29.79,28.35 C30.41,28.09 31.01,27.59 31.47,26.92 C32.12,25.97 32.49,24.7 32.31,23.27 L32.3,23.23 L32.3,23.2 C32.23,22.66 32.48,22.1 32.98,21.8 C33.85,21.29 34.48,20.73 34.92,20.13 C35.4,19.47 35.64,18.78 35.66,18.1 C35.68,17.41 35.48,16.72 35.1,16.07 C34.75,15.47 34.25,14.92 33.64,14.45 C33.12,14.11 32.88,13.45 33.09,12.83 C33.3,12.21 33.35,11.62 33.29,11.05 C33.19,10.17 32.8,9.36 32.25,8.7 C31.69,8.04 30.98,7.55 30.26,7.3 C29.95,7.2 29.64,7.14 29.35,7.14 C29.13,7.8 28.77,8.46 28.23,9.1 C27.73,9.69 26.85,9.77 26.26,9.27 C25.67,8.77 25.59,7.89 26.09,7.3 C26.91,6.33 26.92,5.31 26.49,4.52 C26.19,3.96 25.69,3.49 25.1,3.2 C24.53,2.91 23.89,2.79 23.28,2.92 C22.39,3.1 21.53,3.85 20.97,5.41 L20.97,29.11 C21.08,29.27 21.15,29.45 21.18,29.66 C21.5,31.62 22.33,32.56 23.26,32.82 C24.12,33.06 25.12,32.77 25.92,32.2 C26.7,31.64 27.26,30.83 27.27,29.98 C27.28,29.01 26.54,27.9 24.57,26.89 C23.88,26.54 23.6,25.69 23.95,25 C24.3,24.31 25.15,24.03 25.84,24.38 C28.07,25.51 29.29,26.92 29.79,28.35 Z M9.37,7.27 C8.8,7.46 8.24,7.85 7.77,8.39 C7.75,8.42 7.73,8.44 7.71,8.46 C7.07,9.24 6.64,10.28 6.59,11.48 C6.58,11.8 6.59,12.14 6.64,12.49 C6.71,13.02 6.47,13.57 5.99,13.88 C5.15,14.4 4.53,14.96 4.1,15.55 C3.58,16.25 3.35,16.99 3.34,17.69 C3.33,18.41 3.55,19.12 3.95,19.77 C4.29,20.32 4.75,20.82 5.32,21.24 C5.83,21.59 6.06,22.24 5.86,22.85 C5.64,23.51 5.59,24.15 5.67,24.75 C5.79,25.61 6.19,26.39 6.74,27.03 C7.29,27.67 7.98,28.14 8.69,28.38 C8.92,28.46 9.15,28.51 9.37,28.53 C9.88,27.04 11.16,25.57 13.49,24.38 C14.18,24.03 15.02,24.3 15.38,24.99 C15.73,25.68 15.46,26.52 14.77,26.88 C12.68,27.94 11.9,29.14 11.9,30.18 C11.9,30.97 12.36,31.72 13.03,32.24 C13.71,32.77 14.59,33.04 15.41,32.87 C16.44,32.66 17.44,31.68 17.97,29.54 C18,29.4 18.06,29.27 18.13,29.15 L18.13,6.64 C18.1,6.59 18.07,6.53 18.04,6.47 L18.03,6.45 L18.02,6.43 L18.01,6.41 L18.01,6.4 L18.01,6.39 L18,6.37 L18,6.36 L18,6.35 C17.99,6.31 17.98,6.27 17.97,6.23 C17.44,4.1 16.44,3.13 15.41,2.92 C14.74,2.78 14.02,2.94 13.41,3.3 C12.79,3.66 12.29,4.22 12.05,4.86 C11.74,5.7 11.93,6.74 13,7.73 C13.57,8.26 13.6,9.14 13.08,9.71 C12.55,10.28 11.67,10.31 11.1,9.79 C10.23,8.97 9.67,8.12 9.37,7.27 Z M9.66,11.9 C10.21,11.36 11.1,11.36 11.65,11.92 C12.19,12.47 12.19,13.36 11.63,13.91 C10.66,14.86 10.15,16.1 10.1,17.35 C10.05,18.65 10.47,19.99 11.36,21.09 C11.85,21.69 11.75,22.58 11.15,23.06 C10.55,23.55 9.66,23.45 9.18,22.85 C7.85,21.2 7.22,19.2 7.3,17.24 C7.37,15.29 8.15,13.38 9.66,11.9 Z M26.43,13.38 C25.8,12.92 25.66,12.05 26.12,11.42 C26.58,10.79 27.45,10.65 28.08,11.11 C28.32,11.29 28.55,11.47 28.76,11.66 C30.34,13.09 31.21,14.97 31.37,16.92 C31.53,18.85 30.99,20.84 29.77,22.51 C29.75,22.54 29.72,22.58 29.69,22.61 C29.52,22.84 29.35,23.04 29.19,23.23 C28.67,23.81 27.78,23.85 27.2,23.33 C26.62,22.81 26.58,21.92 27.1,21.34 C27.23,21.19 27.34,21.06 27.44,20.93 C27.46,20.9 27.47,20.88 27.49,20.85 C28.3,19.73 28.66,18.41 28.56,17.13 C28.46,15.87 27.9,14.66 26.88,13.74 C26.74,13.62 26.59,13.5 26.43,13.38 Z" id="Shape"></path>
        </g>
    </g>
</svg>