<?xml version="1.0" encoding="UTF-8"?>
<svg width="626px" height="596px" viewBox="0 0 626 596" version="1.1" xmlns="http://www.w3.org/2000/svg" xmlns:xlink="http://www.w3.org/1999/xlink">
    <!-- Generator: Sketch 51.3 (57544) - http://www.bohemiancoding.com/sketch -->
    <title>brain copy 2</title>
    <desc>Created with Sketch.</desc>
    <defs>
        <filter x="-12.7%" y="-13.0%" width="125.4%" height="126.9%" filterUnits="objectBoundingBox" id="filter-1">
            <feOffset dx="0" dy="2" in="SourceAlpha" result="shadowOffsetOuter1"></feOffset>
            <feGaussianBlur stdDeviation="22.5" in="shadowOffsetOuter1" result="shadowBlurOuter1"></feGaussianBlur>
            <feColorMatrix values="0 0 0 0 0.282352941   0 0 0 0 0.435294118   0 0 0 0 1  0 0 0 0.5 0" type="matrix" in="shadowBlurOuter1" result="shadowMatrixOuter1"></feColorMatrix>
            <feMerge>
                <feMergeNode in="shadowMatrixOuter1"></feMergeNode>
                <feMergeNode in="SourceGraphic"></feMergeNode>
            </feMerge>
        </filter>
    </defs>
    <g id="Page-1" stroke="none" stroke-width="1" fill="none" fill-rule="evenodd">
        <g id="brain-copy-2" filter="url(#filter-1)" transform="translate(43.000000, 41.000000)" fill="#486FFF">
            <g id="Group" transform="translate(270.300000, 254.800000) scale(-1, 1) rotate(-180.000000) translate(-270.300000, -254.800000) translate(0.800000, 0.300000)" fill-rule="nonzero">
                <path d="M195.5,508.3 C164.1,505 134.5,481.3 124.8,451.7 C123.3,446.9 122.8,446.4 119.4,445.8 C112.5,444.5 100.7,439.4 92.8,434.2 C65.9,416.5 48,384.1 46.5,350.1 L45.9,338.4 L41.6,335.4 C35.3,330.8 22.8,318 17.7,310.8 C-9.2,273.1 -5.1,223.7 27.8,189.3 L34,182.8 L33.2,177.8 C30,159.1 34.6,134.9 44.8,116.5 C59.9,88.9 88.1,67.9 116,63.4 C123.2,62.2 124.2,61.8 124.2,59.5 C124.2,58.6 125.7,54.4 127.5,50.3 C140.5,20.5 171.1,0.2 203.2,0.1 C216.5,-5.55111512e-17 225,2 237.2,8 C245,11.9 248.2,14.2 255.2,21.3 C260,26 264.9,31.3 266.3,33.2 L268.7,36.5 L272.6,30.9 C282.3,16.8 299.7,5.1 316.2,1.7 C325.3,-0.2 342.5,0.3 352.2,2.8 C366.1,6.5 381.6,15.1 392.6,25.4 C402.9,35 409.2,44.7 416,61.4 C416.8,63.4 418,64.2 420.9,64.8 C426.4,65.8 440.4,72.6 447.5,77.7 C473.7,96.4 491.2,130.2 491.2,161.9 L491.2,170.2 L498,175.6 C501.7,178.6 508.4,184.9 512.8,189.6 C548,227.3 547.2,280.1 510.8,319.9 L504.4,327 L504.9,340.4 C505.5,355.9 504,366.2 499.1,379.9 C486.4,414.9 451.9,443.1 416.8,447 L410,447.8 L408.1,453.2 C401.3,472.6 384,491.3 364.1,500.8 C347.7,508.5 327.4,510.7 310.9,506.4 C297.3,502.8 288.1,497.3 276.3,485.5 L266,475.2 L264.4,477.5 C260.7,482.8 251.3,491.8 244.6,496.3 C230.1,506 213.2,510.1 195.5,508.3 Z M218.5,465.9 C226.3,462.1 235.2,452.3 240.1,442 C245.1,431.7 249.4,417.6 250,409.9 C250.4,404.1 250.3,404 248,404.6 C246.8,405 241.7,405.8 236.7,406.4 C221.1,408.3 202.9,406.1 186.4,400.1 L177.9,397 L173.1,402.4 C170.4,405.4 166.8,410.5 165,413.8 C161.9,419.5 161.7,420.4 161.7,429.8 C161.7,439 161.9,440.2 164.6,445.1 C175.7,465 200.7,474.7 218.5,465.9 Z M129.1,397.8 C131.4,393.1 135.9,386 139.1,382 L144.9,374.7 L138.5,367.3 C130.8,358.4 124.1,348.3 120.1,339.9 C112.6,324.1 120.5,309.2 136.4,309.3 C142.1,309.4 148.4,312.3 151.4,316.4 C152.8,318.3 155.7,323.2 157.8,327.3 C160.7,332.9 164.2,337.3 171.2,344.3 C181.9,355 188.3,359.2 200.9,363.6 C208.5,366.2 211.4,366.7 222.2,367 C231.8,367.3 236.4,367 242.2,365.6 L249.7,363.8 L250,229.1 L250.2,94.4 L246.1,82.1 C241,66.6 236.4,57.8 229.8,50.9 C222.6,43.4 215.7,40.1 206.1,39.5 C185.8,38.3 166.6,52 161.6,71.3 C159.7,78.8 160.3,84.4 163.9,92.5 C166.3,98 166.8,98.4 174.7,102.4 C194.4,112.2 211.7,129 222.9,149.1 C231.9,165.2 237.4,184.7 237.6,200.9 C237.7,210 237.5,211.3 235.2,214.5 C229.5,223 218.9,225.7 209.6,221.3 C202.8,218 200.3,213.3 198.7,201 C196.5,184.2 193.4,175 185.8,163.3 C173.6,144.5 153.8,132.5 130.7,129.7 C123,128.8 121.2,128.1 116.8,124.2 C112.5,120.5 110.2,115.6 110.2,110.2 C110.2,108 109.9,106.3 109.5,106.3 C108,106.3 99.3,111.9 94.3,116.2 C84.7,124.3 80.5,133.5 76.1,156.4 C74.3,166.1 74,169.7 74.6,181.1 C75.2,192.3 75,194.8 73.6,197.6 C72.7,199.3 66.9,205.8 60.8,211.8 C52.1,220.3 48.8,224.4 46,229.8 C36.5,248.4 36.2,262.7 44.8,280.2 C49.3,289.2 60.7,301.2 72.5,309.3 C77.6,312.8 81.1,316 82.8,318.8 C85,322.7 85.2,324 85.2,336.2 C85.2,351.5 86.4,355.9 93.9,368.8 C102.3,383.4 120.7,406.3 124,406.3 C124.5,406.3 126.8,402.5 129.1,397.8 Z" id="Shape"></path>
                <path d="M419.1,366 C410.8,361.6 405.7,351.8 403.1,334.9 C401.7,326.3 402.6,299 404.6,285.3 C407.4,266.4 410.6,251.3 411.6,251.6 C413.3,252.2 423.4,264.6 427,270.6 C439,290.5 445.5,317.7 443.2,337.9 C440.3,363.7 432.4,373 419.1,366 Z" id="Shape"></path>
            </g>
            <path d="M154.596883,300.780583 C152.467623,311.347077 142.172768,318.291045 131.421283,316.074565 C120.863854,313.896271 113.88769,303.553683 116.054239,292.792958 C119.828007,274.184973 116.007707,255.795948 106.788087,240.87973 C97.1765478,225.382469 81.8148641,213.087411 62.8977843,207.248404 C52.5267987,204.098956 46.7073602,192.976147 49.8852865,182.716795 C52.984829,172.341235 64.0635226,166.559356 74.3188357,169.786827 C102.636619,178.584348 125.600761,196.910726 140.038618,220.311838 C154.513763,243.51872 160.462624,271.800335 154.596883,300.780583 Z" id="Shape-path-Copy-2"></path>
        </g>
    </g>
</svg>