<?xml version="1.0" encoding="UTF-8"?>
<svg width="18px" height="20px" viewBox="0 0 18 20" version="1.1" xmlns="http://www.w3.org/2000/svg" xmlns:xlink="http://www.w3.org/1999/xlink">
    <!-- Generator: Sketch 51.3 (57544) - http://www.bohemiancoding.com/sketch -->
    <title>file-archive</title>
    <desc>Created with Sketch.</desc>
    <defs></defs>
    <g id="Page-1" stroke="none" stroke-width="1" fill="none" fill-rule="evenodd">
        <g id="file-archive" transform="translate(-3.000000, -2.000000)">
            <polygon id="Shape" points="0 0 24 0 24 24 0 24"></polygon>
            <path d="M10,2 L10,4 L12,4 L12,2 L20.007,2 C20.555,2 21,2.444 21,2.992 L21,21.008 C20.9956416,21.5544403 20.5534445,21.9961922 20.007,22 L3.993,22 C3.44497153,22.0000003 3.00055189,21.5560282 3,21.008 L3,2.992 C3.00435839,2.44555966 3.44655554,2.00380782 3.993,2 L10,2 Z M12,4 L12,6 L14,6 L14,4 L12,4 Z M10,6 L10,8 L12,8 L12,6 L10,6 Z M12,8 L12,10 L14,10 L14,8 L12,8 Z M10,10 L10,12 L12,12 L12,10 L10,10 Z M12,12 L12,14 L10,14 L10,17 L14,17 L14,12 L12,12 Z" id="Shape" fill="#FFFFFF" fill-rule="nonzero"></path>
        </g>
    </g>
</svg>