<?xml version="1.0" encoding="UTF-8"?>
<svg width="18px" height="20px" viewBox="0 0 18 20" version="1.1" xmlns="http://www.w3.org/2000/svg" xmlns:xlink="http://www.w3.org/1999/xlink">
    <!-- Generator: Sketch 51.3 (57544) - http://www.bohemiancoding.com/sketch -->
    <title>file-audio</title>
    <desc>Created with Sketch.</desc>
    <defs></defs>
    <g id="Page-1" stroke="none" stroke-width="1" fill="none" fill-rule="evenodd">
        <g id="file-audio" transform="translate(-3.000000, -2.000000)">
            <polygon id="Shape" points="0 0 24 0 24 24 0 24"></polygon>
            <path d="M16,2 L21,7 L21,21.008 C20.9994481,21.5560282 20.5550285,22.0000003 20.007,22 L3.993,22 C3.44655554,21.9961922 3.00435839,21.5544403 3,21.008 L3,2.992 C3,2.444 3.445,2 3.993,2 L16,2 Z M11,12.05 C9.96426115,11.8385807 8.90749177,12.3014519 8.36058741,13.2060782 C7.81368305,14.1107044 7.89486406,15.2615393 8.56334705,16.080431 C9.23183005,16.8993226 10.3431139,17.2092572 11.3389163,16.8545311 C12.3347187,16.4998049 12.9997842,15.5570965 13,14.5 L13,10 L16,10 L16,8 L11,8 L11,12.05 Z" id="Shape" fill="#FFFFFF" fill-rule="nonzero"></path>
        </g>
    </g>
</svg>