<?xml version="1.0" encoding="UTF-8"?>
<svg width="20px" height="22px" viewBox="0 0 20 22" version="1.1" xmlns="http://www.w3.org/2000/svg" xmlns:xlink="http://www.w3.org/1999/xlink">
    <!-- Generator: Sketch 51.3 (57544) - http://www.bohemiancoding.com/sketch -->
    <title>file-doc</title>
    <desc>Created with Sketch.</desc>
    <defs></defs>
    <g id="Page-1" stroke="none" stroke-width="1" fill="none" fill-rule="evenodd">
        <g id="file-doc" transform="translate(-2.000000, -1.000000)">
            <polygon id="Shape" points="0 0 24 0 24 24 0 24"></polygon>
            <path d="M17,3 L21,3 C21.5522847,3 22,3.44771525 22,4 L22,20 C22,20.5522847 21.5522847,21 21,21 L17,21 L17,3 Z M2.859,2.877 L15.429,1.082 C15.5725389,1.06140882 15.7179471,1.10414746 15.8275157,1.19913245 C15.9370842,1.29411745 16.0000193,1.43199167 16,1.577 L16,22.423 C15.9999781,22.5678072 15.9371775,22.7054927 15.8278433,22.8004408 C15.7185091,22.8953889 15.573381,22.938273 15.43,22.918 L2.858,21.123 C2.36516493,21.052809 1.99900478,20.6308084 1.999,20.133 L1.999,3.867 C1.99900478,3.36919162 2.36516493,2.94719098 2.858,2.877 L2.859,2.877 Z M11,8 L11,12.989 L9,11 L7.01,13 L7,8 L5,8 L5,16 L7,16 L9,14 L11,16 L13,16 L13,8 L11,8 Z" id="Shape" fill="#FFFFFF" fill-rule="nonzero"></path>
        </g>
    </g>
</svg>