<?xml version="1.0" encoding="UTF-8"?>
<svg width="18px" height="20px" viewBox="0 0 18 20" version="1.1" xmlns="http://www.w3.org/2000/svg" xmlns:xlink="http://www.w3.org/1999/xlink">
    <!-- Generator: Sketch 51.3 (57544) - http://www.bohemiancoding.com/sketch -->
    <title>file-pdf</title>
    <desc>Created with Sketch.</desc>
    <defs></defs>
    <g id="Page-1" stroke="none" stroke-width="1" fill="none" fill-rule="evenodd">
        <g id="file-pdf" transform="translate(-3.000000, -2.000000)">
            <g id="Shape">
                <polygon points="0 0 24 0 24 24 0 24"></polygon>
                <path d="M16,2 L21,7 L21,21.008 C20.9994481,21.5560282 20.5550285,22.0000003 20.007,22 L3.993,22 C3.44655554,21.9961922 3.00435839,21.5544403 3,21.008 L3,2.992 C3,2.444 3.445,2 3.993,2 L16,2 Z" fill="#FFFFFF" fill-rule="nonzero"></path>
            </g>
            <path d="M6.48,14.543038 L6.48,16.112 C6.48,16.2506674 6.43466712,16.3666662 6.344,16.46 C6.25333288,16.5533338 6.13866736,16.6 6,16.6 C5.86133264,16.6 5.74666712,16.5546671 5.656,16.464 C5.56533288,16.3733329 5.52,16.2560007 5.52,16.112 L5.52,11.208 C5.52,11.0693326 5.56533288,10.9533338 5.656,10.86 C5.74666712,10.7666662 5.86133264,10.72 6,10.72 C6.13866736,10.72 6.25333288,10.7666662 6.344,10.86 C6.43466712,10.9533338 6.48,11.0693326 6.48,11.208 L6.48,11.2454144 C6.55189298,11.1569427 6.64522558,11.0684719 6.76,10.98 C6.88800064,10.8813328 7.03599916,10.8000003 7.204,10.736 C7.37200084,10.6719997 7.5493324,10.64 7.736,10.64 C8.1093352,10.64 8.44399852,10.7346657 8.74,10.924 C9.03600148,11.1133343 9.2706658,11.3733317 9.444,11.704 C9.6173342,12.0346683 9.704,12.4186645 9.704,12.856 C9.704,13.2933355 9.6173342,13.678665 9.444,14.012 C9.2706658,14.345335 9.03866812,14.6066657 8.748,14.796 C8.45733188,14.9853343 8.13066848,15.08 7.768,15.08 C7.5546656,15.08 7.3546676,15.0453337 7.168,14.976 C6.9813324,14.9066663 6.81733404,14.8186672 6.676,14.712 C6.60186089,14.656046 6.53652771,14.5997255 6.48,14.543038 Z M7.616,11.52 C7.38133216,11.52 7.17600088,11.5786661 7,11.696 C6.82399912,11.8133339 6.68666716,11.971999 6.588,12.172 C6.48933284,12.372001 6.44,12.5999987 6.44,12.856 C6.44,13.1066679 6.48933284,13.3346656 6.588,13.54 C6.68666716,13.7453344 6.82399912,13.9066661 7,14.024 C7.17600088,14.1413339 7.38133216,14.2 7.616,14.2 C7.85066784,14.2 8.0546658,14.1413339 8.228,14.024 C8.4013342,13.9066661 8.53733284,13.7453344 8.636,13.54 C8.73466716,13.3346656 8.784,13.1066679 8.784,12.856 C8.784,12.5999987 8.73466716,12.372001 8.636,12.172 C8.53733284,11.971999 8.4013342,11.8133339 8.228,11.696 C8.0546658,11.5786661 7.85066784,11.52 7.616,11.52 Z M13.5680642,14.521008 C13.5026029,14.5934 13.4225819,14.6650636 13.328,14.736 C13.1999994,14.8320005 13.0493342,14.913333 12.876,14.98 C12.7026658,15.046667 12.5146677,15.08 12.312,15.08 C11.9439982,15.08 11.6106682,14.9853343 11.312,14.796 C11.0133318,14.6066657 10.7773342,14.345335 10.604,14.012 C10.4306658,13.678665 10.344,13.2960022 10.344,12.864 C10.344,12.4266645 10.4306658,12.041335 10.604,11.708 C10.7773342,11.374665 11.0106652,11.1133343 11.304,10.924 C11.5973348,10.7346657 11.9226649,10.64 12.28,10.64 C12.5093345,10.64 12.719999,10.6746663 12.912,10.744 C13.104001,10.8133337 13.270666,10.9013328 13.412,11.008 C13.469251,11.0512083 13.5212509,11.0946351 13.568,11.1382806 L13.568,9.568 C13.568,9.42933264 13.6133329,9.3133338 13.704,9.22 C13.7946671,9.1266662 13.9093326,9.08 14.048,9.08 C14.1866674,9.08 14.3013329,9.12533288 14.392,9.216 C14.4826671,9.30666712 14.528,9.42399928 14.528,9.568 L14.528,14.512 C14.528,14.6506674 14.4826671,14.7666662 14.392,14.86 C14.3013329,14.9533338 14.1866674,15 14.048,15 C13.9093326,15 13.7946671,14.9533338 13.704,14.86 C13.6153032,14.7686944 13.5699917,14.6556982 13.5680642,14.521008 Z M12.432,14.2 C12.6666678,14.2 12.8719991,14.1413339 13.048,14.024 C13.2240009,13.9066661 13.3613328,13.7466677 13.46,13.544 C13.5586672,13.3413323 13.608,13.1146679 13.608,12.864 C13.608,12.6079987 13.5586672,12.3786677 13.46,12.176 C13.3613328,11.9733323 13.2240009,11.8133339 13.048,11.696 C12.8719991,11.5786661 12.6666678,11.52 12.432,11.52 C12.2026655,11.52 12.0000009,11.5786661 11.824,11.696 C11.6479991,11.8133339 11.5106672,11.9733323 11.412,12.176 C11.3133328,12.3786677 11.264,12.6079987 11.264,12.864 C11.264,13.1146679 11.3133328,13.3413323 11.412,13.544 C11.5106672,13.7466677 11.6479991,13.9066661 11.824,14.024 C12.0000009,14.1413339 12.2026655,14.2 12.432,14.2 Z M17.768,9.08 C17.8853339,9.08 17.9999994,9.09599984 18.112,9.128 C18.2240006,9.16000016 18.317333,9.21199964 18.392,9.284 C18.466667,9.35600036 18.504,9.45066608 18.504,9.568 C18.504,9.701334 18.4653337,9.80666628 18.388,9.884 C18.3106663,9.96133372 18.2213338,10 18.12,10 C18.0719998,10 18.0000005,9.98800012 17.904,9.964 C17.8079995,9.93999988 17.7146671,9.928 17.624,9.928 C17.490666,9.928 17.3880004,9.95733304 17.316,10.016 C17.2439996,10.074667 17.1946668,10.1426663 17.168,10.22 C17.1413332,10.2973337 17.128,10.365333 17.128,10.424 L17.128,14.512 C17.128,14.6506674 17.0826671,14.7666662 16.992,14.86 C16.9013329,14.9533338 16.7866674,15 16.648,15 C16.5093326,15 16.3946671,14.9533338 16.304,14.86 C16.2133329,14.7666662 16.168,14.6506674 16.168,14.512 L16.168,10.432 C16.168,10.0533314 16.301332,9.73333464 16.568,9.472 C16.834668,9.21066536 17.234664,9.08 17.768,9.08 Z M18.0390027,11.08 C18.1147166,11.08 18.1778105,11.1213329 18.2282865,11.204 C18.2787624,11.2866671 18.304,11.3919994 18.304,11.52 C18.304,11.6480006 18.2787624,11.7533329 18.2282865,11.836 C18.1778105,11.9186671 18.1147166,11.96 18.0390027,11.96 C17.5763816,11.96 17.2700916,11.96 17.1201328,11.96 C17.0771129,11.96 17.084576,11.08 17.1321949,11.08 C17.2813826,11.08 17.5836519,11.08 18.0390027,11.08 Z" id="pdf" fill="#ED1C24"></path>
        </g>
    </g>
</svg>