<?xml version="1.0" encoding="UTF-8"?>
<svg width="18px" height="18px" viewBox="0 0 18 18" version="1.1" xmlns="http://www.w3.org/2000/svg" xmlns:xlink="http://www.w3.org/1999/xlink">
    <!-- Generator: Sketch 51.3 (57544) - http://www.bohemiancoding.com/sketch -->
    <title>file-video</title>
    <desc>Created with Sketch.</desc>
    <defs></defs>
    <g id="Page-1" stroke="none" stroke-width="1" fill="none" fill-rule="evenodd">
        <g id="file-video" transform="translate(-3.000000, -3.000000)">
            <polygon id="Shape" points="0 0 24 0 24 24 0 24"></polygon>
            <path d="M3,3.993 C3,3.445 3.445,3 3.993,3 L20.007,3 C20.555,3 21,3.445 21,3.993 L21,20.007 C20.9994488,20.5551903 20.5551903,20.9994488 20.007,21 L3.993,21 C3.44480973,20.9994488 3.00055122,20.5551903 3,20.007 L3,3.993 Z M10.622,8.415 C10.4993759,8.3331864 10.341692,8.32544785 10.2116462,8.39486134 C10.0816005,8.46427484 10.0002726,8.59958881 10,8.747 L10,15.253 C10.0002726,15.4004112 10.0816005,15.5357252 10.2116462,15.6051387 C10.341692,15.6745521 10.4993759,15.6668136 10.622,15.585 L15.501,12.333 C15.6124353,12.2588403 15.67939,12.1338562 15.67939,12 C15.67939,11.8661438 15.6124353,11.7411597 15.501,11.667 L10.621,8.415 L10.622,8.415 Z" id="Shape" fill="#FFFFFF" fill-rule="nonzero"></path>
        </g>
    </g>
</svg>