<?xml version="1.0" encoding="UTF-8"?>
<svg width="17px" height="16px" viewBox="0 0 17 16" version="1.1" xmlns="http://www.w3.org/2000/svg" xmlns:xlink="http://www.w3.org/1999/xlink">
    <title>Group</title>
    <g id="Page-1" stroke="none" stroke-width="1" fill="none" fill-rule="evenodd">
        <g id="Group" transform="translate(1.000000, 1.000000)">
            <g id="th" transform="translate(2.000000, 1.000000)" stroke="#B0B0B0" stroke-linecap="round" stroke-linejoin="round" stroke-width="2">
                <path d="M2.02374359,0.024924129 C4.94358503,0.0595900943 6.94200625,0.0769230769 8.01900724,0.0769230769 C8.85687346,0.0769230769 9.83809829,0.0664327156 10.9626817,0.0454519929 C12.0670654,0.0248362401 12.9790482,0.90341353 12.999652,2.00779741 C12.999884,2.0202316 13,2.03266767 13,2.04510402 L13,11 C13,12.1045695 12.1045695,13 11,13 L2,13 C0.8954305,13 1.3527075e-16,12.1045695 0,11 L0,2.02479657 C-1.33856792e-05,0.920219679 0.895423108,0.0247831855 2,0.0247831855 C2.00791474,0.0247831855 2.01582941,0.0248301675 2.02374359,0.024924129 Z" id="Rectangle"></path>
            </g>
            <g id="th-copy" opacity="0.549246652" stroke="#B0B0B0" stroke-linecap="round" stroke-linejoin="round" stroke-width="2">
                <path d="M2.02374359,0.024924129 C4.94358503,0.0595900943 6.94200625,0.0769230769 8.01900724,0.0769230769 C8.85687346,0.0769230769 9.83809829,0.0664327156 10.9626817,0.0454519929 C12.0670654,0.0248362401 12.9790482,0.90341353 12.999652,2.00779741 C12.999884,2.0202316 13,2.03266767 13,2.04510402 L13,11 C13,12.1045695 12.1045695,13 11,13 L2,13 C0.8954305,13 1.3527075e-16,12.1045695 0,11 L0,2.02479657 C-1.33856792e-05,0.920219679 0.895423108,0.0247831855 2,0.0247831855 C2.00791474,0.0247831855 2.01582941,0.0248301675 2.02374359,0.024924129 Z" id="Rectangle"></path>
            </g>
            <rect id="Rectangle" fill="#B0B0B0" x="2" y="2" width="13" height="12"></rect>
        </g>
    </g>
</svg>