<?xml version="1.0" encoding="UTF-8"?>
<svg width="456px" height="168px" viewBox="0 0 456 168" version="1.1" xmlns="http://www.w3.org/2000/svg" xmlns:xlink="http://www.w3.org/1999/xlink">
    <!-- Generator: Sketch 51.3 (57544) - http://www.bohemiancoding.com/sketch -->
    <title>Group 8 Copy 4</title>
    <desc>Created with Sketch.</desc>
    <defs></defs>
    <g id="Page-1" stroke="none" stroke-width="1" fill="none" fill-rule="evenodd">
        <g id="Group-8-Copy-4">
            <path d="M64.2,24.9 L53.5,78.7 L38.7,78.7 L39.7,73.4 C35.233311,77.466687 29.733366,79.5 23.2,79.5 C18.999979,79.5 15.133351,78.533343 11.6,76.6 C8.066649,74.666657 5.2500105,71.8833515 3.15,68.25 C1.0499895,64.6166485 0,60.333358 0,55.4 C0,49.466637 1.3166535,44.1166905 3.95,39.35 C6.5833465,34.5833095 10.166644,30.8500135 14.7,28.15 C19.233356,25.4499865 24.233306,24.1 29.7,24.1 C37.966708,24.1 43.799983,26.799973 47.2,32.2 L48.6,24.9 L64.2,24.9 Z M28,66.6 C31.066682,66.6 33.799988,65.8500075 36.2,64.35 C38.600012,62.8499925 40.46666,60.76668 41.8,58.1 C43.13334,55.43332 43.8,52.366684 43.8,48.9 C43.8,45.233315 42.7166775,42.333344 40.55,40.2 C38.3833225,38.066656 35.366686,37 31.5,37 C28.433318,37 25.700012,37.7499925 23.3,39.25 C20.899988,40.7500075 19.03334,42.83332 17.7,45.5 C16.36666,48.16668 15.7,51.233316 15.7,54.7 C15.7,58.366685 16.7833225,61.266656 18.95,63.4 C21.1166775,65.533344 24.133314,66.6 28,66.6 Z M78.6,24.9 L94.1,24.9 L83.4,78.7 L67.9,78.7 L78.6,24.9 Z M89,17.4 C86.33332,17.4 84.1500085,16.6166745 82.45,15.05 C80.7499915,13.4833255 79.9,11.566678 79.9,9.3 C79.9,6.63332 80.8499905,4.4166755 82.75,2.65 C84.6500095,0.8833245 87.133318,0 90.2,0 C92.933347,0 95.1499915,0.7499925 96.85,2.25 C98.5500085,3.7500075 99.4,5.599989 99.4,7.8 C99.4,10.666681 98.433343,12.9833245 96.5,14.75 C94.566657,16.5166755 92.066682,17.4 89,17.4 Z M138,48.3 L156.5,78.7 L138.4,78.7 L125.6,57.8 L116.1,65.7 L113.5,78.7 L97.9,78.7 L112.7,4.5 L128.3,4.5 L120,46 L145.8,24.9 L166.1,24.9 L138,48.3 Z M190.5,79.5 C185.099973,79.5 180.35002,78.50001 176.25,76.5 C172.14998,74.49999 168.983344,71.6833515 166.75,68.05 C164.516656,64.4166485 163.4,60.200024 163.4,55.4 C163.4,49.466637 164.799986,44.133357 167.6,39.4 C170.400014,34.666643 174.266642,30.933347 179.2,28.2 C184.133358,25.466653 189.699969,24.1 195.9,24.1 C201.366694,24.1 206.133313,25.09999 210.2,27.1 C214.266687,29.10001 217.416655,31.9166485 219.65,35.55 C221.883344,39.1833515 223,43.399976 223,48.2 C223,54.133363 221.616681,59.466643 218.85,64.2 C216.083319,68.933357 212.216691,72.666653 207.25,75.4 C202.283309,78.133347 196.700031,79.5 190.5,79.5 Z M191.5,66.6 C194.500015,66.6 197.199988,65.8500075 199.6,64.35 C202.000012,62.8499925 203.86666,60.76668 205.2,58.1 C206.53334,55.43332 207.2,52.366684 207.2,48.9 C207.2,45.233315 206.133344,42.333344 204,40.2 C201.866656,38.066656 198.866686,37 195,37 C191.933318,37 189.200012,37.7499925 186.8,39.25 C184.399988,40.7500075 182.53334,42.83332 181.2,45.5 C179.86666,48.16668 179.2,51.233316 179.2,54.7 C179.2,58.366685 180.283322,61.266656 182.45,63.4 C184.616677,65.533344 187.633314,66.6 191.5,66.6 Z M305.2,25.2 C311.20003,25.2 315.883317,26.7166515 319.25,29.75 C322.616684,32.7833485 324.3,37.099972 324.3,42.7 C324.3,44.233341 324.066669,46.33332 323.6,49 L317.7,78.7 L308.1,78.7 L314,49 C314.333335,47.133324 314.5,45.600006 314.5,44.4 C314.5,40.933316 313.533343,38.300009 311.6,36.5 C309.666657,34.699991 306.733353,33.8 302.8,33.8 C297.866642,33.8 293.816682,35.1833195 290.65,37.95 C287.483317,40.7166805 285.333339,44.866639 284.2,50.4 L278.5,78.7 L268.9,78.7 L274.9,49 C275.233335,47.199991 275.4,45.700006 275.4,44.5 C275.4,41.033316 274.416676,38.3833425 272.45,36.55 C270.483323,34.7166575 267.533353,33.8 263.6,33.8 C258.666642,33.8 254.616683,35.199986 251.45,38 C248.283318,40.800014 246.133339,45.033305 245,50.7 L239.4,78.7 L229.8,78.7 L240.3,25.7 L249.5,25.7 L248.2,32.3 C252.86669,27.566643 258.999962,25.2 266.6,25.2 C270.733354,25.2 274.266652,25.999992 277.2,27.6 C280.133348,29.200008 282.26666,31.533318 283.6,34.6 C289.000027,28.333302 296.199955,25.2 305.2,25.2 Z M395.9,25.7 L385.4,78.7 L376.2,78.7 L377.5,72.2 C375.099988,74.466678 372.316683,76.2166605 369.15,77.45 C365.983317,78.6833395 362.533352,79.3 358.8,79.3 C354.266644,79.3 350.233351,78.3833425 346.7,76.55 C343.166649,74.7166575 340.40001,72.066684 338.4,68.6 C336.39999,65.133316 335.4,61.06669 335.4,56.4 C335.4,50.39997 336.699987,45.033357 339.3,40.3 C341.900013,35.566643 345.48331,31.86668 350.05,29.2 C354.616689,26.53332 359.733305,25.2 365.4,25.2 C369.933356,25.2 373.81665,25.999992 377.05,27.6 C380.283349,29.200008 382.766658,31.566651 384.5,34.7 L386.3,25.7 L395.9,25.7 Z M360.9,70.9 C364.833353,70.9 368.383318,69.9500095 371.55,68.05 C374.716682,66.1499905 377.183325,63.500017 378.95,60.1 C380.716676,56.699983 381.6,52.833355 381.6,48.5 C381.6,43.766643 380.233347,40.100013 377.5,37.5 C374.766653,34.899987 370.866692,33.6 365.8,33.6 C361.866647,33.6 358.333349,34.5499905 355.2,36.45 C352.066651,38.3500095 349.600009,40.999983 347.8,44.4 C345.999991,47.800017 345.1,51.666645 345.1,56 C345.1,60.66669 346.483319,64.3166535 349.25,66.95 C352.016681,69.5833465 355.899975,70.9 360.9,70.9 Z M414.2,25.7 L423.8,25.7 L413.3,78.7 L403.7,78.7 L414.2,25.7 Z M421.8,15.5 C420.066658,15.5 418.633339,14.933339 417.5,13.8 C416.366661,12.666661 415.8,11.300008 415.8,9.7 C415.8,7.833324 416.449994,6.2500065 417.75,4.95 C419.050006,3.6499935 420.69999,3 422.7,3 C424.433342,3 425.883328,3.5499945 427.05,4.65 C428.216673,5.7500055 428.8,7.066659 428.8,8.6 C428.8,10.666677 428.150007,12.333327 426.85,13.6 C425.549994,14.866673 423.866677,15.5 421.8,15.5 Z M446.4,4.5 L456,4.5 L441.2,78.7 L431.6,78.7 L446.4,4.5 Z" id="aikomail-copy-23" fill="#486FFF"></path>
            <rect id="Rectangle-7" fill="#486FFF" x="0" y="97" width="456" height="71" rx="8"></rect>
            <path d="M194.463268,113 L194.463268,120.633408 L178.527831,120.633408 L178.527831,128.879718 L190.451549,128.879718 L190.451549,136.290254 L178.527831,136.290254 L178.527831,152.114254 L169,152.114254 L169,113 L194.463268,113 Z M209.005746,126.205239 C210.120118,124.496536 211.513062,123.150024 213.18462,122.165662 C214.856177,121.1813 216.713436,120.689127 218.756451,120.689127 L218.756451,130.774141 L216.13769,130.774141 C213.760364,130.774141 211.977396,131.284887 210.788732,132.306394 C209.600069,133.327902 209.005746,135.120156 209.005746,137.683211 L209.005746,152.114254 L199.477915,152.114254 L199.477915,121.023437 L209.005746,121.023437 L209.005746,126.205239 Z M252.633183,136.06738 C252.633183,136.958878 252.577465,137.887507 252.466028,138.853296 L230.903042,138.853296 C231.051625,140.784874 231.673807,142.261394 232.769606,143.282901 C233.865405,144.304409 235.211917,144.815155 236.809183,144.815155 C239.18651,144.815155 240.83947,143.812235 241.768113,141.806366 L251.908845,141.806366 C251.388805,143.849381 250.450889,145.688067 249.09507,147.322479 C247.739251,148.956891 246.03986,150.238399 243.996845,151.167042 C241.95383,152.095685 239.669402,152.56 237.143493,152.56 C234.097543,152.56 231.385946,151.90996 229.00862,150.609859 C226.631293,149.309759 224.774035,147.4525 223.436789,145.038028 C222.099543,142.623556 221.43093,139.800523 221.43093,136.568845 C221.43093,133.337167 222.090256,130.514134 223.40893,128.099662 C224.727603,125.68519 226.575575,123.827931 228.952901,122.527831 C231.330228,121.227731 234.060398,120.57769 237.143493,120.57769 C240.152297,120.57769 242.826749,121.209158 245.16693,122.472113 C247.50711,123.735067 249.33651,125.536608 250.655183,127.876789 C251.973856,130.216969 252.633183,132.947139 252.633183,136.06738 Z M242.882479,133.560056 C242.882479,131.925644 242.325301,130.625564 241.21093,129.659775 C240.096558,128.693986 238.703614,128.211099 237.032056,128.211099 C235.43479,128.211099 234.088278,128.675413 232.992479,129.604056 C231.89668,130.532699 231.218781,131.851353 230.958761,133.560056 L242.882479,133.560056 Z M286.955662,136.06738 C286.955662,136.958878 286.899944,137.887507 286.788507,138.853296 L265.225521,138.853296 C265.374104,140.784874 265.996286,142.261394 267.092085,143.282901 C268.187883,144.304409 269.534396,144.815155 271.131662,144.815155 C273.508988,144.815155 275.161948,143.812235 276.090592,141.806366 L286.231324,141.806366 C285.711284,143.849381 284.773368,145.688067 283.417549,147.322479 C282.06173,148.956891 280.362339,150.238399 278.319324,151.167042 C276.276309,152.095685 273.991881,152.56 271.465972,152.56 C268.420022,152.56 265.708425,151.90996 263.331099,150.609859 C260.953772,149.309759 259.096514,147.4525 257.759268,145.038028 C256.422021,142.623556 255.753408,139.800523 255.753408,136.568845 C255.753408,133.337167 256.412735,130.514134 257.731408,128.099662 C259.050082,125.68519 260.898054,123.827931 263.27538,122.527831 C265.652707,121.227731 268.382877,120.57769 271.465972,120.57769 C274.474776,120.57769 277.149228,121.209158 279.489408,122.472113 C281.829589,123.735067 283.658989,125.536608 284.977662,127.876789 C286.296335,130.216969 286.955662,132.947139 286.955662,136.06738 Z M277.204958,133.560056 C277.204958,131.925644 276.64778,130.625564 275.533408,129.659775 C274.419037,128.693986 273.026093,128.211099 271.354535,128.211099 C269.757269,128.211099 268.410757,128.675413 267.314958,129.604056 C266.219159,130.532699 265.54126,131.851353 265.281239,133.560056 L277.204958,133.560056 Z" id="Free" fill="#FFFFFF"></path>
        </g>
    </g>
</svg>